<svg width="52" height="24" viewBox="0 0 52 24" fill="none" xmlns="http://www.w3.org/2000/svg">
<path d="M39.8598 0.996984C40.2195 6.61838 37.4925 10.5593 37.4925 10.5593C37.8467 6.22958 36.0917 0.245303 36.0917 0.245303C34.5927 -0.0484567 32.1972 0.266903 32.1972 0.266903C32.5428 4.93682 30.1679 9.0149 28.414 10.5161C29.2812 5.3375 27.901 1.41926 27.901 1.41926C25.5282 0.820943 22.1273 1.18706 22.1273 1.18706C22.866 6.69614 19.8269 10.7494 19.8269 10.7494C20.3302 6.9089 18.2782 1.98302 18.2782 1.98302C16.5361 1.86962 13.7605 2.43662 13.7605 2.43662C15.2239 5.0513 14.0554 10.798 14.0554 10.798C13.2573 6.0989 10.5745 3.32762 10.5745 3.32762C-4.80898 9.8789 -0.756815 18.9045 6.76539 21.5926C13.8621 24.1241 36.7289 25.3715 46.9597 20.9327C57.1917 16.4917 49.987 4.01234 39.8598 0.996984Z" fill="#000"/>
</svg>
