<svg width="47" height="37" viewBox="0 0 47 37" fill="none" xmlns="http://www.w3.org/2000/svg">
<path d="M26.4052 9.66138C27.6235 12.3218 26.9116 16.1912 24.3811 17.8252C21.6034 19.6188 17.8976 18.821 16.1041 16.0434C15.9153 15.7502 15.7524 15.4413 15.6171 15.1199L0 21.9724V36.2765H41.3027V23.7371C40.6056 23.2284 39.9465 22.3719 39.7045 21.1092C38.9198 20.6015 38.3447 19.8276 38.0851 18.9297C36.7639 18.643 35.68 17.6977 35.2259 16.4344C33.7167 16.1555 32.5021 15.0187 32.1322 13.5404C30.8985 13.1922 30.1074 12.4527 29.6948 11.2648C28.6272 11.3157 27.445 10.8453 26.4052 9.66138ZM38.6124 33.0236H2.5839V30.8228H38.6124V33.0236ZM38.6124 25.6899H2.5839V23.3978H38.6124V25.6899ZM23.7431 9.26106C23.3081 8.98016 22.9267 8.78665 22.4504 8.67191C22.3206 8.10258 22.1853 7.54051 22.1105 7.17057C21.6095 4.69343 20.4858 2.2811 18.2443 0.960969C17.2048 0.343543 15.8058 0.991721 15.6426 2.20142C15.5054 3.21798 16.1736 3.73654 16.9699 4.13567C18.6156 4.96065 19.5638 6.53414 20.1959 8.24138C20.2397 8.35952 20.2819 8.50419 20.3275 8.65979C19.2313 8.90984 18.2277 9.57069 17.5696 10.59C16.2318 12.6617 16.8268 15.4257 18.8985 16.7634C20.9704 18.1012 23.7343 17.5063 25.072 15.4345C26.4098 13.3627 25.8148 10.5987 23.7431 9.26097V9.26106ZM22.6619 12.3688C22.0448 12.3688 21.5446 11.8685 21.5446 11.2517C21.5446 10.6345 22.0448 10.1343 22.6618 10.1343C23.2789 10.1343 23.7791 10.6346 23.7791 11.2516C23.7791 11.8686 23.2789 12.3687 22.6619 12.3687V12.3688ZM44.79 23.6011V36.2764H42.412V23.2455C41.571 22.7154 41.0119 21.7789 41.0119 20.7114L41.0121 20.7048C39.8458 20.3711 38.9708 19.3481 38.8561 18.1045C37.3964 18.0695 36.1716 16.9912 35.9485 15.5858C34.3521 15.5858 33.0238 14.3368 32.9355 12.7625C31.6714 12.6473 30.6349 11.7463 30.3175 10.5522C30.1943 10.5677 30.0703 10.5757 29.9462 10.576C28.2925 10.576 26.952 9.23545 26.952 7.58182C26.952 5.92819 28.2925 4.58777 29.9462 4.58777C31.3332 4.58777 32.4995 5.53108 32.8396 6.81109C32.9627 6.79558 33.0866 6.78767 33.2106 6.78741C34.807 6.78741 36.1113 8.03695 36.1995 9.61126C37.567 9.73592 38.6925 10.7787 38.9051 12.1188C40.4647 12.1188 41.7694 13.3109 41.9099 14.8339C43.5296 14.8728 44.8309 16.197 44.8309 17.8262L44.8307 17.8333C46.083 18.1915 47 19.344 47 20.7114C47 22.0936 46.0631 23.2564 44.79 23.601V23.6011Z" fill="#000"/>
</svg>
