<svg width="33" height="34" viewBox="0 0 33 34" fill="none" xmlns="http://www.w3.org/2000/svg">
<path d="M16.5001 0.4375C17.5775 0.4375 18.6109 0.865512 19.3727 1.62738C20.1346 2.38925 20.5626 3.42256 20.5626 4.5C20.5626 5.57744 20.1346 6.61075 19.3727 7.37262C18.6109 8.13449 17.5775 8.5625 16.5001 8.5625C15.4227 8.5625 14.3893 8.13449 13.6275 7.37262C12.8656 6.61075 12.4376 5.57744 12.4376 4.5C12.4376 3.42256 12.8656 2.38925 13.6275 1.62738C14.3893 0.865512 15.4227 0.4375 16.5001 0.4375ZM22.7888 6.125C26.2501 6.125 29.5001 9.375 29.5001 12.625C33.8876 12.625 33.8876 19.125 29.5001 19.125H3.5001C-0.887402 19.125 -0.887402 12.625 3.5001 12.625C3.5001 9.375 6.7501 6.125 10.2113 6.125C10.9263 8.93625 13.4776 11 16.5001 11C19.5226 11 22.0738 8.93625 22.7888 6.125ZM5.1251 22.375H10.0001L11.6251 33.75H8.3751L5.1251 22.375ZM13.2501 22.375H19.7501L18.1251 33.75H14.8751L13.2501 22.375ZM23.0001 22.375H27.8751L24.6251 33.75H21.3751L23.0001 22.375Z" fill="#000"/>
</svg>
