<svg width="36" height="30" viewBox="0 0 36 30" fill="none" xmlns="http://www.w3.org/2000/svg">
<path d="M35.3332 16.3334C35.3332 17.0406 35.0522 17.7189 34.5521 18.219C34.052 18.7191 33.3737 19 32.6665 19H3.33317C2.62593 19 1.94765 18.7191 1.44755 18.219C0.947455 17.7189 0.666504 17.0406 0.666504 16.3334C0.666504 15.6261 0.947455 14.9479 1.44755 14.4478C1.94765 13.9477 2.62593 13.6667 3.33317 13.6667H32.6665C33.3737 13.6667 34.052 13.9477 34.5521 14.4478C35.0522 14.9479 35.3332 15.6261 35.3332 16.3334ZM7.33317 21.6667H3.33317C3.33317 23.7884 4.17603 25.8233 5.67632 27.3236C7.17661 28.8239 9.21144 29.6667 11.3332 29.6667H24.6665C26.7882 29.6667 28.8231 28.8239 30.3234 27.3236C31.8236 25.8233 32.6665 23.7884 32.6665 21.6667H7.33317ZM5.99984 11H3.33317V5.66671C3.33317 4.25222 3.89507 2.89566 4.89527 1.89547C5.89546 0.895277 7.25202 0.333374 8.6665 0.333374H27.3332C28.7477 0.333374 30.1042 0.895277 31.1044 1.89547C32.1046 2.89566 32.6665 4.25222 32.6665 5.66671V11H5.99984ZM27.3332 7.00004C27.3332 7.35366 27.4736 7.6928 27.7237 7.94285C27.9737 8.1929 28.3129 8.33337 28.6665 8.33337C29.0201 8.33337 29.3593 8.1929 29.6093 7.94285C29.8594 7.6928 29.9998 7.35366 29.9998 7.00004C29.9998 6.64642 29.8594 6.30728 29.6093 6.05723C29.3593 5.80718 29.0201 5.66671 28.6665 5.66671C28.3129 5.66671 27.9737 5.80718 27.7237 6.05723C27.4736 6.30728 27.3332 6.64642 27.3332 7.00004ZM21.9998 4.33337C21.9998 4.687 22.1403 5.02613 22.3904 5.27618C22.6404 5.52623 22.9795 5.66671 23.3332 5.66671C23.6868 5.66671 24.0259 5.52623 24.276 5.27618C24.526 5.02613 24.6665 4.687 24.6665 4.33337C24.6665 3.97975 24.526 3.64061 24.276 3.39057C24.0259 3.14052 23.6868 3.00004 23.3332 3.00004C22.9795 3.00004 22.6404 3.14052 22.3904 3.39057C22.1403 3.64061 21.9998 3.97975 21.9998 4.33337ZM16.6665 7.00004C16.6665 7.35366 16.807 7.6928 17.057 7.94285C17.3071 8.1929 17.6462 8.33337 17.9998 8.33337C18.3535 8.33337 18.6926 8.1929 18.9426 7.94285C19.1927 7.6928 19.3332 7.35366 19.3332 7.00004C19.3332 6.64642 19.1927 6.30728 18.9426 6.05723C18.6926 5.80718 18.3535 5.66671 17.9998 5.66671C17.6462 5.66671 17.3071 5.80718 17.057 6.05723C16.807 6.30728 16.6665 6.64642 16.6665 7.00004ZM11.3332 4.33337C11.3332 4.687 11.4736 5.02613 11.7237 5.27618C11.9737 5.52623 12.3129 5.66671 12.6665 5.66671C13.0201 5.66671 13.3593 5.52623 13.6093 5.27618C13.8594 5.02613 13.9998 4.687 13.9998 4.33337C13.9998 3.97975 13.8594 3.64061 13.6093 3.39057C13.3593 3.14052 13.0201 3.00004 12.6665 3.00004C12.3129 3.00004 11.9737 3.14052 11.7237 3.39057C11.4736 3.64061 11.3332 3.97975 11.3332 4.33337ZM5.99984 7.00004C5.99984 7.35366 6.14031 7.6928 6.39036 7.94285C6.64041 8.1929 6.97955 8.33337 7.33317 8.33337C7.68679 8.33337 8.02593 8.1929 8.27598 7.94285C8.52603 7.6928 8.6665 7.35366 8.6665 7.00004C8.6665 6.64642 8.52603 6.30728 8.27598 6.05723C8.02593 5.80718 7.68679 5.66671 7.33317 5.66671C6.97955 5.66671 6.64041 5.80718 6.39036 6.05723C6.14031 6.30728 5.99984 6.64642 5.99984 7.00004Z" fill="#000"/>
</svg>
