<svg width="51" height="31" viewBox="0 0 51 31" fill="none" xmlns="http://www.w3.org/2000/svg">
<g clip-path="url(#clip0_425_12)">
<path d="M0 13.6847C0.134661 13.2606 0.224436 12.8139 0.411905 12.4152C1.27136 10.5883 2.73283 9.64015 4.72371 9.63081C5.41022 9.62681 5.87625 9.42145 6.34096 8.92672C8.14437 7.00512 10.0375 5.18488 12.2898 3.78335C16.8762 0.926966 21.8481 -0.35054 27.2227 0.0828521C33.3498 0.576252 38.5448 3.1126 42.8738 7.49452C43.456 8.08394 44.0554 8.65468 44.6125 9.26676C44.8779 9.55747 45.163 9.62814 45.5287 9.61481C47.0945 9.55747 48.4649 10.0335 49.4854 11.271C50.6828 12.7232 50.9614 14.3795 50.2379 16.1237C49.525 17.8439 48.1982 18.8081 46.3446 18.9974C46.0832 19.0241 45.8192 19.0308 45.5551 19.0308C32.0494 19.0321 18.545 19.0334 5.03924 19.0308C2.68002 19.0308 0.933388 17.8613 0.25084 15.8317C0.157105 15.5529 0.0831732 15.2662 0 14.9822V13.6847ZM15.9415 9.61881C16.0973 9.54947 16.463 9.47746 16.7033 9.26276C17.3304 8.70135 17.9284 8.10127 18.4882 7.47185C19.0189 6.87444 18.9476 5.98365 18.3918 5.44224C17.8479 4.91284 16.9884 4.85817 16.4168 5.3809C15.795 5.94898 15.2009 6.55173 14.6398 7.18115C14.2305 7.64121 14.1949 8.21329 14.4536 8.76936C14.7071 9.3121 15.1613 9.5788 15.9428 9.61748L15.9415 9.61881ZM36.381 8.0866C36.2424 7.77589 36.1671 7.40918 35.9532 7.16648C35.3961 6.53439 34.802 5.92898 34.1762 5.36623C33.5993 4.8475 32.7399 4.91951 32.2025 5.45825C31.6692 5.99299 31.5952 6.87177 32.1075 7.44918C32.6765 8.09194 33.2864 8.70402 33.9241 9.27876C34.3796 9.68949 34.9459 9.72016 35.4965 9.44679C36.0311 9.18008 36.2899 8.72136 36.381 8.08527V8.0866ZM26.787 7.32117H26.7844C26.7844 7.02246 26.8016 6.72242 26.7804 6.42504C26.7263 5.64361 26.0781 5.02619 25.3203 5.01552C24.5466 5.00485 23.8667 5.64094 23.8311 6.44371C23.8047 7.02379 23.806 7.6052 23.8311 8.18528C23.8654 9.00273 24.5176 9.61081 25.3163 9.60681C26.1137 9.60281 26.7435 8.99073 26.7857 8.16661C26.8002 7.88524 26.7884 7.60254 26.7884 7.32117H26.787Z" fill="#000"/>
<path d="M9.09511 30.256C8.47329 30.0347 8.13928 29.5639 7.89108 28.9639C7.0105 26.8342 6.09823 24.718 5.19785 22.5963C5.1292 22.4336 5.07111 22.267 4.98926 22.0549H45.6227C45.5408 22.267 45.4827 22.4336 45.4141 22.5963C44.515 24.718 43.6014 26.8342 42.7208 28.9652C42.4726 29.5666 42.1386 30.036 41.5168 30.2574H9.09511V30.256Z" fill="#000"/>
</g>
<defs>
<clipPath id="clip0_425_12">
<rect width="50.6327" height="30.2561" fill="000"/>
</clipPath>
</defs>
</svg>
