<svg width="46" height="26" viewBox="0 0 46 26" fill="none" xmlns="http://www.w3.org/2000/svg">
<path d="M41.4896 25.4L36.3333 23.7L40.3958 12.95L44.8229 21.7C45.309 22.6 45.1007 23.5167 44.1979 24.45C43.2951 25.3833 42.3924 25.7 41.4896 25.4ZM28.4167 23.5L30.6562 4.8C30.7257 4.3 30.9604 3.958 31.3604 3.774C31.759 3.59133 32.2361 3.58333 32.7917 3.75L38 5.6C38.4861 5.8 38.8076 6.1 38.9646 6.5C39.1201 6.9 39.1111 7.33333 38.9375 7.8L33.0521 23.5H28.4167ZM13 23.5L7.11458 7.8C6.94097 7.33333 6.93264 6.892 7.08958 6.476C7.24514 6.05867 7.56597 5.76667 8.05208 5.6L13.2604 3.75C13.7465 3.55 14.2069 3.54133 14.6417 3.724C15.075 3.908 15.3264 4.26667 15.3958 4.8L17.5833 23.5H13ZM4.04167 25.4C3.13889 25.6667 2.32292 25.3413 1.59375 24.424C0.864583 23.508 0.743055 22.6 1.22917 21.7L5.70833 12.95L9.71875 23.7L4.04167 25.4ZM20.7083 23.5L18.2083 2C18.1389 1.43333 18.3042 0.958 18.7042 0.574C19.1028 0.191334 19.5972 0 20.1875 0H25.8125C26.4028 0 26.8972 0.191334 27.2958 0.574C27.6958 0.958 27.8611 1.43333 27.7917 2L25.2917 23.5H20.7083Z" fill="#000000"/>
</svg>
