<svg width="33" height="33" viewBox="0 0 33 33" fill="none" xmlns="http://www.w3.org/2000/svg">
<g clip-path="url(#clip0_449_109)">
<path d="M16.6872 0.679464C20.9111 0.679463 24.962 2.35742 27.9488 5.3442C30.9356 8.33098 32.6136 12.3819 32.6136 16.6059C32.6136 20.8298 30.9356 24.8808 27.9488 27.8675C24.962 30.8543 20.9111 32.5323 16.6872 32.5323C12.4632 32.5323 8.41226 30.8543 5.42548 27.8675C2.4387 24.8808 0.760742 20.8298 0.760741 16.6059C0.760741 12.3819 2.4387 8.33098 5.42548 5.3442C8.41226 2.35742 12.4632 0.679464 16.6872 0.679464ZM9.71935 15.6105C9.45535 15.6105 9.20217 15.7153 9.01549 15.902C8.82882 16.0887 8.72395 16.3419 8.72395 16.6059C8.72395 16.8699 8.82882 17.1231 9.01549 17.3097C9.20217 17.4964 9.45535 17.6013 9.71935 17.6013L21.2521 17.6013L16.9778 21.8735C16.7909 22.0604 16.6859 22.3139 16.6859 22.5783C16.6859 22.8426 16.7909 23.0961 16.9778 23.283C17.1647 23.4699 17.4182 23.5749 17.6826 23.5749C17.9469 23.5749 18.2004 23.4699 18.3873 23.283L24.3597 17.3106C24.4524 17.2182 24.5259 17.1083 24.5761 16.9874C24.6263 16.8664 24.6521 16.7368 24.6521 16.6059C24.6521 16.4749 24.6263 16.3453 24.5761 16.2244C24.5259 16.1034 24.4524 15.9936 24.3597 15.9011L18.3873 9.92873C18.2004 9.74182 17.9469 9.63681 17.6826 9.63681C17.4182 9.63681 17.1647 9.74182 16.9778 9.92873C16.7909 10.1156 16.6859 10.3691 16.6859 10.6335C16.6859 10.8978 16.7909 11.1513 16.9778 11.3382L21.2521 15.6105L9.71935 15.6105Z" fill="#FFBB3A"/>
</g>
<defs>
<clipPath id="clip0_449_109">
<rect width="31.8528" height="31.8528" fill="white" transform="translate(0.760742 32.5323) rotate(-90)"/>
</clipPath>
</defs>
</svg>
