<svg width="21" height="20" viewBox="0 0 21 20" fill="none" xmlns="http://www.w3.org/2000/svg">
<path d="M20.3197 10.1735C20.3197 12.7373 19.3012 15.196 17.4884 17.0089C15.6755 18.8217 13.2168 19.8402 10.653 19.8402C8.08923 19.8402 5.63048 18.8217 3.81763 17.0089C2.00478 15.196 0.986328 12.7373 0.986328 10.1735C0.986328 7.60974 2.00478 5.15099 3.81763 3.33814C5.63048 1.52529 8.08923 0.506836 10.653 0.506836C13.2168 0.506836 15.6755 1.52529 17.4884 3.33814C19.3012 5.15099 20.3197 7.60974 20.3197 10.1735ZM11.2572 5.94434C11.2572 5.7841 11.1935 5.63043 11.0802 5.51713C10.9669 5.40382 10.8132 5.34017 10.653 5.34017C10.4928 5.34017 10.3391 5.40382 10.2258 5.51713C10.1125 5.63043 10.0488 5.7841 10.0488 5.94434V12.9442L7.45574 10.3499C7.3423 10.2365 7.18843 10.1727 7.02799 10.1727C6.86756 10.1727 6.71369 10.2365 6.60024 10.3499C6.4868 10.4634 6.42306 10.6172 6.42306 10.7777C6.42306 10.9381 6.4868 11.092 6.60024 11.2054L10.2252 14.8304C10.2814 14.8867 10.348 14.9313 10.4214 14.9618C10.4948 14.9922 10.5735 15.0079 10.653 15.0079C10.7325 15.0079 10.8112 14.9922 10.8846 14.9618C10.958 14.9313 11.0246 14.8867 11.0807 14.8304L14.7057 11.2054C14.8192 11.092 14.8829 10.9381 14.8829 10.7777C14.8829 10.6172 14.8192 10.4634 14.7057 10.3499C14.5923 10.2365 14.4384 10.1727 14.278 10.1727C14.1176 10.1727 13.9637 10.2365 13.8502 10.3499L11.2572 12.9442V5.94434Z" fill="#FFBB3A"/>
</svg>
