<svg width="15" height="26" viewBox="0 0 15 26" fill="none" xmlns="http://www.w3.org/2000/svg">
<g clip-path="url(#clip0_259_7978)">
<path d="M0.000495911 7.81339C0.000495911 11.579 3.01967 14.6341 6.74097 14.6341C10.4637 14.6341 13.4814 11.579 13.4814 7.81339C13.4814 4.04637 10.4637 0.992676 6.74097 0.992676C3.01967 0.992676 0.000495911 4.04637 0.000495911 7.81339ZM5.99203 4.02411C5.99203 3.60539 6.32905 3.26625 6.74097 3.26625C9.26397 3.26625 11.2346 5.30204 11.2346 7.81339C11.2346 8.23022 10.8995 8.57125 10.4857 8.57125C10.0738 8.57125 9.73674 8.23022 9.73674 7.81339C9.73674 6.14137 8.39332 4.78196 6.74097 4.78196C6.32905 4.78196 5.99203 4.44282 5.99203 4.02411ZM8.23885 23.7284V16.0125C7.75204 16.1025 7.25119 16.1072 6.74097 16.1072C6.23075 16.1072 5.7299 16.1025 5.24309 16.0125V23.7284C5.24309 24.5668 5.91245 25.2441 6.74097 25.2441C7.56949 25.2441 8.23885 24.5668 8.23885 23.7284Z" fill="#000000"/>
</g>
<defs>
<clipPath id="clip0_259_7978">
<rect width="14.9788" height="24.2514" fill="white" transform="matrix(-1 0 0 1 14.9785 0.992676)"/>
</clipPath>
</defs>
</svg>
